<svg width="32" height="32" viewBox="0 0 32 32" fill="none" xmlns="http://www.w3.org/2000/svg">
<rect width="32" height="32" rx="8" fill="#025373"/>
<path d="M19.1 23.15C19.73 23.15 20.32 23 20.84 22.7C22.07 21.99 22.75 20.56 22.75 18.68V13.33C22.75 11.45 22.07 10.02 20.84 9.31005C19.61 8.60005 18.04 8.73005 16.4 9.67005L11.77 12.34C10.14 13.28 9.24 14.58 9.24 16C9.24 17.42 10.14 18.72 11.77 19.66L16.4 22.33C17.34 22.88 18.26 23.15 19.1 23.15ZM19.1 10.36C19.47 10.36 19.81 10.44 20.1 10.61C20.84 11.04 21.25 12 21.25 13.33V18.67C21.25 19.99 20.84 20.96 20.09 21.39C19.34 21.82 18.3 21.69 17.15 21.03L12.52 18.36C11.37 17.7 10.74 16.86 10.74 16C10.74 15.14 11.37 14.3 12.52 13.64L17.15 10.97C17.86 10.56 18.52 10.36 19.1 10.36Z" fill="white"/>
</svg>
