<svg width="32" height="32" viewBox="0 0 32 32" fill="none" xmlns="http://www.w3.org/2000/svg">
<path d="M12.9 23.15C12.27 23.15 11.68 23 11.16 22.7C9.93 21.99 9.25 20.56 9.25 18.68V13.33C9.25 11.45 9.93 10.02 11.16 9.31005C12.39 8.60005 13.96 8.73005 15.6 9.67005L20.23 12.34C21.86 13.28 22.76 14.58 22.76 16C22.76 17.42 21.86 18.72 20.23 19.66L15.6 22.33C14.66 22.88 13.74 23.15 12.9 23.15ZM12.9 10.36C12.53 10.36 12.19 10.44 11.9 10.61C11.16 11.04 10.75 12 10.75 13.33V18.67C10.75 19.99 11.16 20.96 11.91 21.39C12.66 21.82 13.7 21.69 14.85 21.03L19.48 18.36C20.63 17.7 21.26 16.86 21.26 16C21.26 15.14 20.63 14.3 19.48 13.64L14.85 10.97C14.14 10.56 13.48 10.36 12.9 10.36Z" fill="#025373"/>
<rect x="0.5" y="0.5" width="31" height="31" rx="7.5" stroke="#025373"/>
</svg>
