<svg width="32" height="32" viewBox="0 0 32 32" fill="none" xmlns="http://www.w3.org/2000/svg">
<rect width="32" height="32" rx="16" fill="#025373"/>
<path d="M22.6667 16C22.6667 12.3267 19.6734 9.33334 16 9.33334C12.3267 9.33334 9.33337 12.3267 9.33337 16C9.33337 17.9333 10.1667 19.6733 11.4867 20.8933C11.4867 20.9 11.4867 20.9 11.48 20.9067C11.5467 20.9733 11.6267 21.0267 11.6934 21.0867C11.7334 21.12 11.7667 21.1533 11.8067 21.18C11.9267 21.28 12.06 21.3733 12.1867 21.4667C12.2334 21.5 12.2734 21.5267 12.32 21.56C12.4467 21.6467 12.58 21.7267 12.72 21.8C12.7667 21.8267 12.82 21.86 12.8667 21.8867C13 21.96 13.14 22.0267 13.2867 22.0867C13.34 22.1133 13.3934 22.14 13.4467 22.16C13.5934 22.22 13.74 22.2733 13.8867 22.32C13.94 22.34 13.9934 22.36 14.0467 22.3733C14.2067 22.42 14.3667 22.46 14.5267 22.5C14.5734 22.5133 14.62 22.5267 14.6734 22.5333C14.86 22.5733 15.0467 22.6 15.24 22.62C15.2667 22.62 15.2934 22.6267 15.32 22.6333C15.5467 22.6533 15.7734 22.6667 16 22.6667C16.2267 22.6667 16.4534 22.6533 16.6734 22.6333C16.7 22.6333 16.7267 22.6267 16.7534 22.62C16.9467 22.6 17.1334 22.5733 17.32 22.5333C17.3667 22.5267 17.4134 22.5067 17.4667 22.5C17.6267 22.46 17.7934 22.4267 17.9467 22.3733C18 22.3533 18.0534 22.3333 18.1067 22.32C18.2534 22.2667 18.4067 22.22 18.5467 22.16C18.6 22.14 18.6534 22.1133 18.7067 22.0867C18.8467 22.0267 18.9867 21.96 19.1267 21.8867C19.18 21.86 19.2267 21.8267 19.2734 21.8C19.4067 21.72 19.54 21.6467 19.6734 21.56C19.72 21.5333 19.76 21.5 19.8067 21.4667C19.94 21.3733 20.0667 21.28 20.1867 21.18C20.2267 21.1467 20.26 21.1133 20.3 21.0867C20.3734 21.0267 20.4467 20.9667 20.5134 20.9067C20.5134 20.9 20.5134 20.9 20.5067 20.8933C21.8334 19.6733 22.6667 17.9333 22.6667 16ZM19.2934 19.3133C17.4867 18.1 14.5267 18.1 12.7067 19.3133C12.4134 19.5067 12.1734 19.7333 11.9734 19.98C10.96 18.9533 10.3334 17.5467 10.3334 16C10.3334 12.8733 12.8734 10.3333 16 10.3333C19.1267 10.3333 21.6667 12.8733 21.6667 16C21.6667 17.5467 21.04 18.9533 20.0267 19.98C19.8334 19.7333 19.5867 19.5067 19.2934 19.3133Z" fill="white"/>
<path d="M16 12.62C14.62 12.62 13.5 13.74 13.5 15.12C13.5 16.4733 14.56 17.5733 15.9667 17.6133C15.9867 17.6133 16.0133 17.6133 16.0267 17.6133C16.04 17.6133 16.06 17.6133 16.0733 17.6133C16.08 17.6133 16.0867 17.6133 16.0867 17.6133C17.4333 17.5667 18.4933 16.4733 18.5 15.12C18.5 13.74 17.38 12.62 16 12.62Z" fill="white"/>
</svg>
